<svg version="1.2" baseProfile="tiny-ps" xmlns="http://www.w3.org/2000/svg" viewBox="0 0 210 297" width="210" height="297">
	<title>-1-h7wc6u-svg</title>
	<style>
		tspan { white-space:pre }
		.shp0 { fill: #000000 } 
		.shp1 { fill: #ff5555 } 
		.shp2 { fill: yellow } 
	</style>
	<g id="g5887">
		<path id="path982" class="shp0" d="M111.48 152.36C108.46 151.55 108.28 151.26 109.05 148.57C109.4 147.33 109.8 146.09 110.29 144.89C110.85 143.54 110.35 143.06 109.03 142.88C100.4 141.71 93.38 137.46 87.6 131.15C79.1 121.85 74.79 110.7 73.8 98.24C73.02 88.33 74.44 78.77 79.23 69.93C84.35 60.46 91.77 53.8 102.79 52.23C112.78 50.81 121.34 54.3 128.66 60.88C138.88 70.07 143.94 81.89 145.39 95.36C146.46 105.25 145.16 114.83 140.72 123.81C136.2 132.94 129.47 139.63 119.31 142.27C117.99 142.61 117.65 143.2 118.3 144.46C118.95 145.73 119.48 147.06 120 148.39C120.57 149.88 120.12 150.91 118.42 150.83C115.55 150.7 114.15 152.56 113.07 154.71C109.79 161.23 109.77 167.6 114.67 173.38C116.96 176.08 119.59 178.48 122.07 181.01C127.34 186.38 127.98 196.2 123.45 202.24C121.74 204.52 119.81 206.69 118.39 209.15C117.09 211.39 115.91 213.87 115.41 216.4C113.7 224.96 116.08 232.65 120.94 239.77C122.17 241.57 122.81 243.8 123.53 245.89C123.69 246.38 123.09 247.14 122.85 247.77C122.37 247.31 121.73 246.93 121.44 246.37C120.31 244.22 119.53 241.87 118.21 239.86C113.18 232.17 111.48 223.84 113.28 214.89C113.75 212.56 114.92 210.27 116.17 208.21C117.73 205.67 119.69 203.37 121.5 200.99C125.42 195.86 124.9 187.17 120.38 182.59C117.98 180.17 115.51 177.81 113.24 175.28C108.07 169.51 107.44 162.92 110.02 155.84C110.44 154.71 110.95 153.61 111.48 152.36" />
		<g id="redground">
			<path id="path5873" class="shp1" d="M111.22 148.78C111.4 148.96 111.59 149.15 111.78 149.34C113.56 148.95 115.35 148.57 117.14 148.19C116.65 146.88 116.17 145.58 115.69 144.28C115.64 144.15 115.57 144.03 115.48 143.93C114.66 142.87 113.68 142.8 113.08 143.98C112.31 145.5 111.82 147.17 111.22 148.78" />
			<path id="path5871" class="shp1" d="M143.47 99.86C143.06 86.38 138.53 73.14 127.35 62.82C120.2 56.22 111.74 52.86 101.85 54.69C93.43 56.25 87.28 61.27 82.84 68.36C75.93 79.37 74.54 91.44 76.86 103.98C79.11 116.08 84.49 126.52 94.39 134.22C99.99 138.56 106.36 141.12 113.52 140.79C123.31 140.34 130.62 135.37 135.99 127.42C141.31 119.54 143.39 110.69 143.47 99.86" />
		</g>
		<g id="dots" class="dots">
			<path id="path986" class="shp2" d="M100.47 67.58C105.05 67.58 105.06 60.47 100.47 60.47C95.9 60.47 95.89 67.58 100.47 67.58Z" />
			<path id="path990" class="shp2" d="M120.94 73.45C125.51 73.45 125.52 66.34 120.94 66.34C116.36 66.34 116.35 73.45 120.94 73.45Z" />
			<path id="path994" class="shp2" d="M81.7 91.07C86.28 91.07 86.29 83.95 81.7 83.95C77.13 83.95 77.12 91.07 81.7 91.07Z" />
			<path id="path998" class="shp2" d="M109.73 92.67C114.3 92.67 114.31 85.55 109.73 85.55C105.15 85.55 105.14 92.67 109.73 92.67Z" />
			<path id="path1002" class="shp2" d="M134.55 102.28C139.13 102.28 139.13 95.16 134.55 95.16C129.97 95.16 129.96 102.28 134.55 102.28Z" />
			<path id="path1006" class="shp2" d="M88.11 115.09C92.69 115.09 92.69 107.97 88.11 107.97C83.53 107.97 83.52 115.09 88.11 115.09Z" />
			<path id="path1010" class="shp2" d="M113.06 115.93C117.63 115.93 117.64 108.82 113.06 108.82C108.48 108.82 108.47 115.93 113.06 115.93Z" />
			<path id="path1014" class="shp2" d="M129.74 127.1C134.32 127.1 134.33 119.98 129.74 119.98C125.17 119.98 125.16 127.1 129.74 127.1Z" />
			<path id="path1018" class="shp2" d="M100.92 135.1C105.5 135.1 105.51 127.99 100.92 127.99C96.34 127.99 96.34 135.1 100.92 135.1Z" />
		</g>
	</g>
</svg>